<?xml version="1.0" encoding="UTF-8"?>
<svg version="1.1" xmlns="http://www.w3.org/2000/svg" width="354" height="312">
<path d="M0 0 C116.82 0 233.64 0 354 0 C354 102.96 354 205.92 354 312 C237.18 312 120.36 312 0 312 C0 209.04 0 106.08 0 0 Z " fill="#FEFEFE" transform="translate(0,0)"/>
<path d="M0 0 C6.9228908 1.94822491 11.01677539 1.93014281 17.890625 -0.20703125 C22.54232874 -1.54206039 27.27563707 -2.15974596 32.0625 -2.8125 C32.94035156 -2.93818359 33.81820312 -3.06386719 34.72265625 -3.19335938 C45.61912971 -4.7169512 56.32779715 -5.43662874 67.33764648 -5.43530273 C69.37569743 -5.43750075 71.41321514 -5.45576886 73.45117188 -5.47460938 C86.14245277 -5.49324562 101.23962598 -4.11218988 111.62109375 4.16796875 C113.70868528 6.94001652 113.61017798 9.45390924 113.390625 12.83203125 C112.72165643 16.20851451 111.58175523 19.17633092 110.3125 22.375 C107.08336537 30.79282958 106.37931301 39.14587433 108.30078125 48 C112.00778823 56.21244623 123.29405473 61.42598958 130.58032227 66.20385742 C131.35819092 66.71408447 132.13605957 67.22431152 132.9375 67.75 C133.71472412 68.25958252 134.49194824 68.76916504 135.29272461 69.29418945 C140.54639544 72.78453873 145.22284245 76.44515688 149.78515625 80.8125 C151.59983025 82.54675492 153.46460372 84.07831962 155.4375 85.625 C160.11457196 89.61654368 163.48104572 94.62635339 166.8125 99.75 C167.50279297 100.79607422 167.50279297 100.79607422 168.20703125 101.86328125 C172.81287581 110.24494184 171.86130115 122.1640643 169.9375 131.3125 C165.62691178 144.52495412 155.89052822 156.43739165 145.8125 165.75 C145.1525 165.75 144.4925 165.75 143.8125 165.75 C143.8125 166.41 143.8125 167.07 143.8125 167.75 C141.78943433 169.55165069 139.76584758 171.22284238 137.625 172.875 C136.99223145 173.36492432 136.35946289 173.85484863 135.70751953 174.35961914 C124.85111791 182.63907803 113.24643393 191.07435328 99.0625 190.625 C96.31149133 190.6739324 96.31149133 190.6739324 93.8125 191.75 C90.81884797 195.39107769 88.87193268 199.42825141 86.85449219 203.65283203 C85.05422817 207.27613755 82.95310563 210.71856751 80.875 214.1875 C80.02659832 215.62065273 79.17894172 217.0542468 78.33203125 218.48828125 C77.9138916 219.1942041 77.49575195 219.90012695 77.06494141 220.62744141 C75.83049402 222.71950488 74.60774135 224.81804823 73.38671875 226.91796875 C62.31296018 245.8607724 62.31296018 245.8607724 52.8125 248.75 C44.41626571 250.27658805 37.39931946 247.06061213 29.8125 243.75 C29.02617187 243.42 28.23984375 243.09 27.4296875 242.75 C25.88387724 242.09913252 24.34665545 241.42788264 22.8125 240.75 C22.8125 240.09 22.8125 239.43 22.8125 238.75 C21.94367188 238.64429688 21.07484375 238.53859375 20.1796875 238.4296875 C16.64743183 237.71667997 14.10770555 236.56521569 10.9375 234.875 C7.6418706 233.16660388 4.45044839 231.5162905 0.9375 230.3125 C-6.33793399 227.75094095 -13.18378266 223.80685479 -20.03125 220.2890625 C-23.8045407 218.36747927 -27.51463826 216.56477687 -31.5 215.125 C-34.75940216 213.9096297 -37.24153204 212.55029853 -40.1875 210.75 C-42.07567426 209.72517912 -43.97070602 208.71292868 -45.87109375 207.7109375 C-74.16575009 192.70104415 -74.16575009 192.70104415 -86.34375 183.13671875 C-87.85997828 181.99633519 -89.44061191 180.9420952 -91.03515625 179.9140625 C-94.32139685 177.65808072 -97.22473565 175.15483046 -100.125 172.4375 C-100.61162109 171.98955078 -101.09824219 171.54160156 -101.59960938 171.08007812 C-103.14245496 169.65046891 -104.66571683 168.20199169 -106.1875 166.75 C-106.75307617 166.22446533 -107.31865234 165.69893066 -107.90136719 165.1574707 C-112.53233749 160.73065733 -116.07339448 155.91982277 -119.5625 150.5625 C-120.09488281 149.76908203 -120.62726563 148.97566406 -121.17578125 148.15820312 C-125.39237129 141.76894265 -125.39237129 141.76894265 -126.1875 137.75 C-126.8475 137.75 -127.5075 137.75 -128.1875 137.75 C-135.59392419 115.4588204 -137.89748514 91.28828937 -127.60546875 69.3828125 C-127.13753906 68.51398438 -126.66960937 67.64515625 -126.1875 66.75 C-125.73375 65.6775 -125.28 64.605 -124.8125 63.5 C-119.70300624 51.49924029 -113.19325458 40.06281983 -104.953125 29.9296875 C-103.71644855 28.402994 -102.52145987 26.84202222 -101.359375 25.2578125 C-96.44412839 18.68416967 -90.99885093 14.27141178 -84.1875 9.75 C-83.39988281 9.193125 -82.61226562 8.63625 -81.80078125 8.0625 C-72.63257826 1.6623583 -63.59341675 -1.05213896 -52.78515625 -3.41796875 C-35.3015678 -7.46140451 -17.26738573 -4.96342015 0 0 Z " fill="#9940D5" transform="translate(164.1875,43.25)"/>
<path d="M0 0 C6.9228908 1.94822491 11.01677539 1.93014281 17.890625 -0.20703125 C22.54232874 -1.54206039 27.27563707 -2.15974596 32.0625 -2.8125 C32.94035156 -2.93818359 33.81820312 -3.06386719 34.72265625 -3.19335938 C45.61912971 -4.7169512 56.32779715 -5.43662874 67.33764648 -5.43530273 C69.37569743 -5.43750075 71.41321514 -5.45576886 73.45117188 -5.47460938 C86.14245277 -5.49324562 101.23962598 -4.11218988 111.62109375 4.16796875 C113.70868528 6.94001652 113.61017798 9.45390924 113.390625 12.83203125 C112.72165643 16.20851451 111.58175523 19.17633092 110.3125 22.375 C107.08336537 30.79282958 106.37931301 39.14587433 108.30078125 48 C112.00778823 56.21244623 123.29405473 61.42598958 130.58032227 66.20385742 C131.35819092 66.71408447 132.13605957 67.22431152 132.9375 67.75 C133.71472412 68.25958252 134.49194824 68.76916504 135.29272461 69.29418945 C140.54639544 72.78453873 145.22284245 76.44515688 149.78515625 80.8125 C151.59983025 82.54675492 153.46460372 84.07831962 155.4375 85.625 C160.11457196 89.61654368 163.48104572 94.62635339 166.8125 99.75 C167.50279297 100.79607422 167.50279297 100.79607422 168.20703125 101.86328125 C172.81287581 110.24494184 171.86130115 122.1640643 169.9375 131.3125 C165.62691178 144.52495412 155.89052822 156.43739165 145.8125 165.75 C145.1525 165.75 144.4925 165.75 143.8125 165.75 C143.8125 166.41 143.8125 167.07 143.8125 167.75 C141.78943433 169.55165069 139.76584758 171.22284238 137.625 172.875 C136.99223145 173.36492432 136.35946289 173.85484863 135.70751953 174.35961914 C124.85111791 182.63907803 113.24643393 191.07435328 99.0625 190.625 C96.31149133 190.6739324 96.31149133 190.6739324 93.8125 191.75 C90.81884797 195.39107769 88.87193268 199.42825141 86.85449219 203.65283203 C85.05422817 207.27613755 82.95310563 210.71856751 80.875 214.1875 C80.02659832 215.62065273 79.17894172 217.0542468 78.33203125 218.48828125 C77.9138916 219.1942041 77.49575195 219.90012695 77.06494141 220.62744141 C75.83049402 222.71950488 74.60774135 224.81804823 73.38671875 226.91796875 C62.31296018 245.8607724 62.31296018 245.8607724 52.8125 248.75 C44.41626571 250.27658805 37.39931946 247.06061213 29.8125 243.75 C29.02617187 243.42 28.23984375 243.09 27.4296875 242.75 C25.88387724 242.09913252 24.34665545 241.42788264 22.8125 240.75 C22.8125 240.09 22.8125 239.43 22.8125 238.75 C21.94367188 238.64429688 21.07484375 238.53859375 20.1796875 238.4296875 C16.64743183 237.71667997 14.10770555 236.56521569 10.9375 234.875 C7.6418706 233.16660388 4.45044839 231.5162905 0.9375 230.3125 C-6.33793399 227.75094095 -13.18378266 223.80685479 -20.03125 220.2890625 C-23.8045407 218.36747927 -27.51463826 216.56477687 -31.5 215.125 C-34.75940216 213.9096297 -37.24153204 212.55029853 -40.1875 210.75 C-42.07567426 209.72517912 -43.97070602 208.71292868 -45.87109375 207.7109375 C-74.16575009 192.70104415 -74.16575009 192.70104415 -86.34375 183.13671875 C-87.85997828 181.99633519 -89.44061191 180.9420952 -91.03515625 179.9140625 C-94.32139685 177.65808072 -97.22473565 175.15483046 -100.125 172.4375 C-100.61162109 171.98955078 -101.09824219 171.54160156 -101.59960938 171.08007812 C-103.14245496 169.65046891 -104.66571683 168.20199169 -106.1875 166.75 C-106.75307617 166.22446533 -107.31865234 165.69893066 -107.90136719 165.1574707 C-112.53233749 160.73065733 -116.07339448 155.91982277 -119.5625 150.5625 C-120.09488281 149.76908203 -120.62726563 148.97566406 -121.17578125 148.15820312 C-125.39237129 141.76894265 -125.39237129 141.76894265 -126.1875 137.75 C-126.8475 137.75 -127.5075 137.75 -128.1875 137.75 C-135.59392419 115.4588204 -137.89748514 91.28828937 -127.60546875 69.3828125 C-127.13753906 68.51398438 -126.66960937 67.64515625 -126.1875 66.75 C-125.73375 65.6775 -125.28 64.605 -124.8125 63.5 C-119.70300624 51.49924029 -113.19325458 40.06281983 -104.953125 29.9296875 C-103.71644855 28.402994 -102.52145987 26.84202222 -101.359375 25.2578125 C-96.44412839 18.68416967 -90.99885093 14.27141178 -84.1875 9.75 C-83.39988281 9.193125 -82.61226562 8.63625 -81.80078125 8.0625 C-72.63257826 1.6623583 -63.59341675 -1.05213896 -52.78515625 -3.41796875 C-35.3015678 -7.46140451 -17.26738573 -4.96342015 0 0 Z M-54.734375 14.46484375 C-57.25857099 15.78723305 -59.55219031 16.45185699 -62.3125 17.125 C-67.99952772 18.7221685 -72.77430721 21.85324466 -77.1875 25.75 C-77.1875 26.41 -77.1875 27.07 -77.1875 27.75 C-77.76242188 28.00265625 -78.33734375 28.2553125 -78.9296875 28.515625 C-88.24161646 33.60657578 -94.38535138 44.16892756 -100.1875 52.75 C-100.98027344 53.90048828 -100.98027344 53.90048828 -101.7890625 55.07421875 C-104.57476532 59.28695338 -106.46411515 63.61382646 -108.1953125 68.35546875 C-109.1875 70.75 -109.1875 70.75 -110.63671875 73.06640625 C-119.56054127 88.50889006 -119.67362235 110.16700139 -115.5625 127.0625 C-111.92835187 138.44176523 -106.72262831 147.42304556 -98.1875 155.75 C-95.7451706 158.17227743 -93.32535418 160.60340858 -90.96875 163.109375 C-84.59646164 169.78718404 -77.83941345 174.67982971 -70.1875 179.75 C-69.12402344 180.58144531 -69.12402344 180.58144531 -68.0390625 181.4296875 C-65.32413413 183.36564908 -62.39114049 183.94908988 -59.1875 184.75 C-59.1875 185.41 -59.1875 186.07 -59.1875 186.75 C-53.9253742 190.5510124 -48.14612775 193.2411041 -42.1875 195.75 C-39.38300651 197.24762388 -36.60628307 198.7878485 -33.8359375 200.34765625 C-31.28138247 201.76470774 -31.28138247 201.76470774 -28.83984375 202.66796875 C-25.9290943 203.85541735 -23.26615746 205.30423851 -20.51660156 206.82080078 C-13.48019534 210.69515578 -6.51317104 213.91912565 1.06274414 216.57666016 C6.60408918 218.56008094 11.57009114 221.24961195 16.6953125 224.14453125 C20.7819893 226.24932344 24.953077 227.62274466 29.3515625 228.92578125 C31.8125 229.75 31.8125 229.75 34.8125 231.75 C41.61208657 232.69506889 47.53538271 231.297236 53.8125 228.75 C54.1425 227.1 54.4725 225.45 54.8125 223.75 C55.4725 223.75 56.1325 223.75 56.8125 223.75 C57.06644531 223.19570313 57.32039062 222.64140625 57.58203125 222.0703125 C58.09830078 220.98363281 58.09830078 220.98363281 58.625 219.875 C58.96144531 219.15570313 59.29789063 218.43640625 59.64453125 217.6953125 C60.8125 215.75 60.8125 215.75 63.8125 213.75 C65.1866059 211.41077305 65.1866059 211.41077305 66.375 208.75 C68.61631471 203.94618529 68.61631471 203.94618529 70.8125 201.75 C71.52793024 200.14587126 72.18883799 198.51698512 72.8125 196.875 C74.00969556 193.74171473 75.26225459 190.72591754 76.8125 187.75 C77.4725 187.75 78.1325 187.75 78.8125 187.75 C79.46160154 186.16800369 80.10664694 184.58434276 80.75 183 C81.10964844 182.11828125 81.46929687 181.2365625 81.83984375 180.328125 C82.66606576 178.13813896 83.30619943 176.03101729 83.8125 173.75 C84.4725 173.75 85.1325 173.75 85.8125 173.75 C86.163125 172.71875 86.51375 171.6875 86.875 170.625 C88.31616324 166.72298255 90.16599463 163.16663395 92.125 159.5 C96.71390348 150.73123862 99.26430803 141.27479521 101.8125 131.75 C101.99804443 131.13874268 102.18358887 130.52748535 102.37475586 129.89770508 C103.3575312 125.07591217 102.99838698 120.02762384 102.99780273 115.12524414 C102.9999744 113.08653413 103.01810765 111.04837897 103.03710938 109.00976562 C103.05049403 99.96619976 102.61566658 91.93664983 98.6875 83.6875 C98.15769531 82.55634766 98.15769531 82.55634766 97.6171875 81.40234375 C97.35164062 80.85707031 97.08609375 80.31179687 96.8125 79.75 C96.1525 79.75 95.4925 79.75 94.8125 79.75 C94.70808594 79.01265625 94.60367188 78.2753125 94.49609375 77.515625 C92.55232886 69.65170762 84.98414336 63.86142641 79.11328125 58.765625 C77.27237735 57.15288066 75.55915684 55.52065432 73.875 53.75 C71.88838833 51.53451728 71.88838833 51.53451728 68.8125 50.75 C68.8125 50.09 68.8125 49.43 68.8125 48.75 C65.58458445 46.5980563 64.52849191 46.54913557 60.8125 46.75 C60.8125 46.09 60.8125 45.43 60.8125 44.75 C54.77427428 39.27346969 48.48902475 35.95180354 40.87890625 33 C37.3799165 31.60331386 35.96154085 30.97356128 33.8125 27.75 C31.81827205 27.38371323 29.81796689 27.04868656 27.8125 26.75 C27.4825 26.09 27.1525 25.43 26.8125 24.75 C24.83733604 24.05046277 22.83022879 23.44015089 20.8125 22.875 C15.9751535 21.45505601 11.45014998 19.86393896 6.91015625 17.6796875 C1.25632244 15.17389151 -4.37147459 14.11207968 -10.4375 13.1875 C-18.93406751 11.87671625 -18.93406751 11.87671625 -21.1875 10.75 C-32.53314959 9.7729929 -44.4550381 9.0696947 -54.734375 14.46484375 Z " fill="#C16CEE" transform="translate(164.1875,43.25)"/>
<path d="M0 0 C0.79656006 0.00604248 1.59312012 0.01208496 2.41381836 0.01831055 C13.64865092 0.2063746 24.72381998 2.12389888 34.3125 8.25 C35.08980469 8.518125 35.86710937 8.78625 36.66796875 9.0625 C39.80205699 10.46983062 41.5234136 12.19686328 43.875 14.6875 C46.00817809 16.93158857 48.00638865 19.02137824 50.48828125 20.875 C52.83680838 22.64519604 53.87881095 24.70846032 55.3125 27.25 C56.3025 28.24 56.3025 28.24 57.3125 29.25 C58.08348893 31.20561061 58.78366387 33.18966739 59.4375 35.1875 C59.79070312 36.24839844 60.14390625 37.30929688 60.5078125 38.40234375 C61.3125 41.25 61.3125 41.25 61.3125 44.25 C61.9725 44.25 62.6325 44.25 63.3125 44.25 C66.61523964 55.77980453 65.31332439 71.11950138 61.3125 82.25 C61.01085937 83.16136719 60.70921875 84.07273437 60.3984375 85.01171875 C58.51581661 90.2539761 56.55276271 93.51453047 52.3125 97.25 C51.31927655 98.40472319 50.34086643 99.57229863 49.375 100.75 C45.7452344 105.00174589 42.56067799 108.70877196 36.9375 110.0625 C35.638125 110.1553125 35.638125 110.1553125 34.3125 110.25 C34.3125 110.91 34.3125 111.57 34.3125 112.25 C32.97445312 112.64832031 32.97445312 112.64832031 31.609375 113.0546875 C30.43890625 113.40789062 29.2684375 113.76109375 28.0625 114.125 C26.90234375 114.47304687 25.7421875 114.82109375 24.546875 115.1796875 C21.46826121 116.0866576 21.46826121 116.0866576 19.43212891 117.29589844 C15.23632916 119.18453993 10.46616368 118.63191241 5.9375 118.625 C4.85927979 118.62338867 3.78105957 118.62177734 2.67016602 118.62011719 C-8.4434443 118.44992152 -18.29393202 116.51237865 -27.6875 110.25 C-27.6875 109.59 -27.6875 108.93 -27.6875 108.25 C-28.27015625 108.13527344 -28.8528125 108.02054687 -29.453125 107.90234375 C-31.85273135 107.20175938 -33.41610933 106.26807405 -35.4375 104.8125 C-36.05109375 104.38066406 -36.6646875 103.94882813 -37.296875 103.50390625 C-37.75578125 103.09011719 -38.2146875 102.67632812 -38.6875 102.25 C-38.6875 101.59 -38.6875 100.93 -38.6875 100.25 C-39.3475 100.25 -40.0075 100.25 -40.6875 100.25 C-41.87109375 98.82421875 -41.87109375 98.82421875 -43.125 96.9375 C-44.42245468 94.99741886 -45.6339983 93.30337121 -47.2890625 91.65234375 C-49.20855159 89.72749296 -49.74236419 87.80742631 -50.6875 85.25 C-51.35065291 83.81087564 -52.01768053 82.37353362 -52.6875 80.9375 C-56.86152572 71.40576962 -57.19267418 62.5179589 -56.6875 52.25 C-56.3575 51.59 -56.0275 50.93 -55.6875 50.25 C-55.58416044 48.91806789 -55.50421341 47.58426817 -55.4375 46.25 C-54.86058477 40.55410678 -52.47351816 36.17412513 -49.6875 31.25 C-49.2853125 30.528125 -48.883125 29.80625 -48.46875 29.0625 C-47.55792842 27.44904463 -46.62538382 25.84787614 -45.6875 24.25 C-45.0275 24.25 -44.3675 24.25 -43.6875 24.25 C-43.39875 23.610625 -43.11 22.97125 -42.8125 22.3125 C-41.6875 20.25 -41.6875 20.25 -39.6875 19.25 C-39.4090625 18.63640625 -39.130625 18.0228125 -38.84375 17.390625 C-37.38416566 14.68842155 -35.7568548 13.65172808 -33.1875 12 C-32.3934375 11.47921875 -31.599375 10.9584375 -30.78125 10.421875 C-28.6875 9.25 -28.6875 9.25 -26.6875 9.25 C-26.45546875 8.62351562 -26.2234375 7.99703125 -25.984375 7.3515625 C-24.28302474 4.59455515 -23.03487562 4.4040369 -19.9375 3.625 C-17.18520803 2.90737786 -14.56082863 2.20132124 -11.90234375 1.1796875 C-7.85120026 0.0081539 -4.19311161 -0.05078545 0 0 Z " fill="#C16BEF" transform="translate(157.6875,90.75)"/>
<path d="M0 0 C2.03805094 -0.00219802 4.07556866 -0.02046612 6.11352539 -0.03930664 C18.80480629 -0.05794288 33.90197949 1.32311285 44.28344727 9.60327148 C46.37103879 12.37531925 46.2725315 14.88921197 46.05297852 18.26733398 C45.38400994 21.64381724 44.24410875 24.61163365 42.97485352 27.81030273 C39.74571889 36.22813232 39.04166652 44.58117706 40.96313477 53.43530273 C44.67014174 61.64774896 55.95640825 66.86129232 63.24267578 71.63916016 C64.02054443 72.14938721 64.79841309 72.65961426 65.59985352 73.18530273 C66.37707764 73.69488525 67.15430176 74.20446777 67.95507812 74.72949219 C73.20874895 78.21984146 77.88519597 81.88045961 82.44750977 86.24780273 C84.26218377 87.98205766 86.12695723 89.51362235 88.09985352 91.06030273 C92.77692547 95.05184641 96.14339923 100.06165612 99.47485352 105.18530273 C99.93504883 105.88268555 100.39524414 106.58006836 100.86938477 107.29858398 C105.47522932 115.68024457 104.52365467 127.59936704 102.59985352 136.74780273 C98.2892653 149.96025685 88.55288173 161.87269438 78.47485352 171.18530273 C77.81485352 171.18530273 77.15485352 171.18530273 76.47485352 171.18530273 C76.47485352 171.84530273 76.47485352 172.50530273 76.47485352 173.18530273 C74.45178784 174.98695342 72.42820109 176.65814511 70.28735352 178.31030273 C69.33820068 179.04518921 69.33820068 179.04518921 68.36987305 179.79492188 C56.07808767 189.16905294 43.53298965 197.46426933 27.47485352 196.18530273 C29.12449094 190.41157174 31.39469875 185.2521132 34.16235352 179.93530273 C42.69593434 163.36520428 50.93958927 144.01264084 51.47485352 125.18530273 C51.50554932 124.15445557 51.50554932 124.15445557 51.53686523 123.1027832 C51.88565084 109.54626508 51.93224473 95.83652782 46.47485352 83.18530273 C46.47485352 82.52530273 46.47485352 81.86530273 46.47485352 81.18530273 C45.81485352 81.18530273 45.15485352 81.18530273 44.47485352 81.18530273 C44.16032227 80.52143555 43.84579102 79.85756836 43.52172852 79.17358398 C39.38353769 70.57528423 39.38353769 70.57528423 32.47485352 64.18530273 C32.01852539 63.40155273 31.56219727 62.61780273 31.09204102 61.81030273 C29.26369791 58.84255741 27.37336432 57.27597349 24.59985352 55.18530273 C21.7692876 53.0016056 19.02477739 50.88140141 16.53735352 48.31030273 C14.46698779 46.02786633 14.46698779 46.02786633 11.47485352 44.18530273 C11.47485352 43.52530273 11.47485352 42.86530273 11.47485352 42.18530273 C10.77360352 41.91717773 10.07235352 41.64905273 9.34985352 41.37280273 C3.13439931 38.80554991 -2.67217745 35.47597199 -8.52514648 32.18530273 C-8.52514648 31.52530273 -8.52514648 30.86530273 -8.52514648 30.18530273 C-10.50514648 29.52530273 -12.48514648 28.86530273 -14.52514648 28.18530273 C-14.52514648 27.52530273 -14.52514648 26.86530273 -14.52514648 26.18530273 C-15.10264648 26.04092773 -15.68014648 25.89655273 -16.27514648 25.74780273 C-19.40014648 24.96655273 -19.40014648 24.96655273 -22.52514648 24.18530273 C-22.52514648 23.52530273 -22.52514648 22.86530273 -22.52514648 22.18530273 C-25.16514648 21.52530273 -27.80514648 20.86530273 -30.52514648 20.18530273 C-30.52514648 19.52530273 -30.52514648 18.86530273 -30.52514648 18.18530273 C-31.60022461 17.99581055 -31.60022461 17.99581055 -32.69702148 17.80249023 C-35.52049479 17.18631788 -38.07313277 16.32948335 -40.77514648 15.31030273 C-45.65956578 13.49438565 -50.57093525 11.80000862 -55.52514648 10.18530273 C-54.52514648 7.18530273 -54.52514648 7.18530273 -52.82348633 6.29321289 C-46.97435435 4.45882389 -41.22474966 3.34642785 -35.15014648 2.56030273 C-33.8469043 2.37854492 -33.8469043 2.37854492 -32.51733398 2.19311523 C-21.65635138 0.71499334 -10.96825394 -0.001321 0 0 Z " fill="#9A41D5" transform="translate(231.525146484375,37.814697265625)"/>
<path d="M0 0 C1.00417969 0.01353516 2.00835937 0.02707031 3.04296875 0.04101562 C5.48756864 0.07593848 7.93097734 0.12497252 10.375 0.1875 C7.90881513 2.80677363 6.25736622 3.72867308 2.75 4.625 C-1.61869339 5.83390637 -5.61373641 7.40001179 -9.71484375 9.3203125 C-11.625 10.1875 -11.625 10.1875 -14.625 11.1875 C-14.955 12.1775 -15.285 13.1675 -15.625 14.1875 C-16.615 14.1875 -17.605 14.1875 -18.625 14.1875 C-18.625 14.8475 -18.625 15.5075 -18.625 16.1875 C-20.19921875 17.73828125 -20.19921875 17.73828125 -22.3125 19.5 C-28.44601535 24.32435069 -28.44601535 24.32435069 -32.625 30.6875 C-33.94270664 33.9817666 -36.10125037 35.72530524 -38.625 38.1875 C-39.181875 39.115625 -39.73875 40.04375 -40.3125 41 C-40.745625 41.721875 -41.17875 42.44375 -41.625 43.1875 C-42.285 43.1875 -42.945 43.1875 -43.625 43.1875 C-43.73972656 43.89648438 -43.85445312 44.60546875 -43.97265625 45.3359375 C-44.67322109 48.3982868 -45.74094892 50.96547898 -47.0625 53.8125 C-47.49433594 54.75351563 -47.92617187 55.69453125 -48.37109375 56.6640625 C-49.625 59.1875 -49.625 59.1875 -51.625 62.1875 C-52.84288357 66.13344278 -53.71030746 70.16187455 -54.625 74.1875 C-54.83511719 75.01121094 -55.04523438 75.83492188 -55.26171875 76.68359375 C-58.87443268 92.69739662 -58.33832987 111.54469381 -49.9375 125.8125 C-49.31488281 126.77414063 -48.69226563 127.73578125 -48.05078125 128.7265625 C-46.625 131.1875 -46.625 131.1875 -46.625 134.1875 C-45.965 134.1875 -45.305 134.1875 -44.625 134.1875 C-43.965 136.1675 -43.305 138.1475 -42.625 140.1875 C-41.965 140.1875 -41.305 140.1875 -40.625 140.1875 C-40.625 140.8475 -40.625 141.5075 -40.625 142.1875 C-40.00625 142.496875 -39.3875 142.80625 -38.75 143.125 C-37.375 143.8125 -36 144.5 -34.625 145.1875 C-34.295 146.1775 -33.965 147.1675 -33.625 148.1875 C-33.0475 148.47625 -32.47 148.765 -31.875 149.0625 C-28.85889057 150.57055471 -27.01029794 152.80220206 -24.625 155.1875 C-20.19265563 158.83982518 -15.79230831 161.66393083 -10.625 164.1875 C-10.14828857 164.66743408 -9.67157715 165.14736816 -9.18041992 165.6418457 C-7.55474079 167.25731809 -6.07616284 168.17450057 -4.05078125 169.23046875 C-3.38369141 169.58173828 -2.71660156 169.93300781 -2.02929688 170.29492188 C-1.33900391 170.65134766 -0.64871094 171.00777344 0.0625 171.375 C0.76439453 171.74302734 1.46628906 172.11105469 2.18945312 172.49023438 C3.91537635 173.3942894 5.64484719 174.29156601 7.375 175.1875 C7.375 175.8475 7.375 176.5075 7.375 177.1875 C8.2825 177.27 9.19 177.3525 10.125 177.4375 C13.375 178.1875 13.375 178.1875 15.125 180 C17.99588131 182.79113461 20.89494312 183.68318803 24.64453125 184.96484375 C27.6082676 186.29195316 29.91567656 187.96888439 32.51635742 189.88793945 C35.55803473 192.01467639 38.80466489 193.66690953 42.125 195.3125 C42.81658203 195.65796875 43.50816406 196.0034375 44.22070312 196.359375 C49.76740199 199.05304525 55.31986023 200.95594615 61.375 202.1875 C61.375 202.8475 61.375 203.5075 61.375 204.1875 C63.355 204.5175 65.335 204.8475 67.375 205.1875 C67.375 205.8475 67.375 206.5075 67.375 207.1875 C67.92027344 207.35765625 68.46554688 207.5278125 69.02734375 207.703125 C74.65884978 209.51290814 80.01439569 211.69095378 85.375 214.1875 C83.6875 218.03125 83.6875 218.03125 80.875 219.4375 C73.60368324 220.99563931 67.89560704 220.99118744 61.375 217.1875 C59.88221956 216.58593176 58.38115463 216.00475304 56.875 215.4375 C52.68899605 213.80058502 48.74200774 211.87670446 44.75 209.8125 C39.75337286 207.23441295 34.7343414 205.12989717 29.4375 203.25 C21.9744941 200.57861372 15.22474203 197.06456221 8.30322266 193.23291016 C4.93177328 191.40503649 1.49773544 189.70408363 -1.9375 188 C-2.61031006 187.66532715 -3.28312012 187.3306543 -3.97631836 186.98583984 C-6.85172879 185.55754532 -9.73022148 184.13557788 -12.609375 182.71484375 C-17.37930553 180.35155999 -22.03352427 177.88249662 -26.625 175.1875 C-26.625 174.5275 -26.625 173.8675 -26.625 173.1875 C-27.553125 173.0225 -28.48125 172.8575 -29.4375 172.6875 C-35.31835407 171.01234763 -39.86688431 166.87185192 -44.625 163.1875 C-45.42550781 162.59324219 -46.22601563 161.99898437 -47.05078125 161.38671875 C-52.36901739 157.39115274 -57.01409595 152.97144019 -61.625 148.1875 C-62.470625 147.3625 -63.31625 146.5375 -64.1875 145.6875 C-73.5194591 136.11625989 -73.5194591 136.11625989 -76.625 130.1875 C-77.20894531 129.16269531 -77.20894531 129.16269531 -77.8046875 128.1171875 C-86.77705374 111.60590997 -87.50288653 90.11824115 -82.4375 72.1875 C-80.798659 66.83933113 -78.76984164 61.84312979 -75.7890625 57.09765625 C-74.59138134 55.1323338 -73.78044001 53.2013618 -72.9375 51.0625 C-67.61217358 38.85685184 -58.86588197 28.59751625 -49.625 19.1875 C-49.06683594 18.58421875 -48.50867188 17.9809375 -47.93359375 17.359375 C-46.625 16.1875 -46.625 16.1875 -44.625 16.1875 C-44.625 15.5275 -44.625 14.8675 -44.625 14.1875 C-37.86603903 7.99305721 -30.30866504 5.49532089 -21.625 3.1875 C-20.89104004 2.93379639 -20.15708008 2.68009277 -19.40087891 2.41870117 C-12.80623511 0.19273023 -6.92676523 -0.18033634 0 0 Z " fill="#621E9B" transform="translate(131.625,54.8125)"/>
<path d="M0 0 C3.53083164 1.85697876 6.24982804 4.44938702 8.98828125 7.30712891 C9.91640625 8.10957031 9.91640625 8.10957031 10.86328125 8.92822266 C17.15926248 14.51287909 18.58094566 21.50056896 19.26171875 29.53369141 C19.51333048 37.95300696 18.53262978 45.05861248 13.98828125 52.30712891 C11.5 54.45556641 11.5 54.45556641 8.98828125 56.30712891 C8.46878906 56.84080078 7.94929688 57.37447266 7.4140625 57.92431641 C5.78354089 59.50569901 4.20392184 60.41605847 2.17578125 61.43212891 C1.52996094 61.76470703 0.88414062 62.09728516 0.21875 62.43994141 C-7.78422755 65.5514318 -19.51342451 65.97260125 -27.57421875 62.99462891 C-28.70859375 62.43775391 -29.84296875 61.88087891 -31.01171875 61.30712891 C-32.08421875 60.87400391 -33.15671875 60.44087891 -34.26171875 59.99462891 C-37.63460405 57.92490383 -39.11029119 55.74432488 -41.01171875 52.30712891 C-41.01171875 51.64712891 -41.01171875 50.98712891 -41.01171875 50.30712891 C-42.00171875 49.97712891 -42.99171875 49.64712891 -44.01171875 49.30712891 C-44.01171875 48.31712891 -44.01171875 47.32712891 -44.01171875 46.30712891 C-44.67171875 46.30712891 -45.33171875 46.30712891 -46.01171875 46.30712891 C-49.03321404 34.89558867 -48.62271991 25.1856769 -43.63671875 14.30712891 C-41.69767778 11.92061695 -39.6925774 10.78160116 -37.01171875 9.30712891 C-36.45484375 8.75025391 -35.89796875 8.19337891 -35.32421875 7.61962891 C-34.89109375 7.18650391 -34.45796875 6.75337891 -34.01171875 6.30712891 C-33.35171875 6.30712891 -32.69171875 6.30712891 -32.01171875 6.30712891 C-31.68171875 5.31712891 -31.35171875 4.32712891 -31.01171875 3.30712891 C-30.02171875 2.97712891 -29.03171875 2.64712891 -28.01171875 2.30712891 C-27.68171875 1.64712891 -27.35171875 0.98712891 -27.01171875 0.30712891 C-19.37057431 -2.23991924 -7.64576506 -2.6333351 0 0 Z " fill="#601D99" transform="translate(159.01171875,114.69287109375)"/>
<path d="M0 0 C0 0.66 0 1.32 0 2 C0.86625 2.433125 0.86625 2.433125 1.75 2.875 C3.83333333 3.91666667 5.91666667 4.95833333 8 6 C8 6.66 8 7.32 8 8 C8.60714844 8.08507812 9.21429688 8.17015625 9.83984375 8.2578125 C12.63941474 9.21969042 13.14536628 10.32135309 14.5625 12.875 C15.80398798 15.08118519 16.84695054 16.84875964 18.65234375 18.6328125 C20 20 20 20 20 22 C20.66 22 21.32 22 22 22 C22.19335938 22.71027344 22.38671875 23.42054688 22.5859375 24.15234375 C22.97652344 25.53099609 22.97652344 25.53099609 23.375 26.9375 C23.63023437 27.85402344 23.88546875 28.77054688 24.1484375 29.71484375 C24.76660104 32.16745087 24.76660104 32.16745087 27 33 C30.60236816 41.11171554 30.25826463 52.35664548 28.34765625 60.92578125 C27.41806973 63.17194953 26.38946173 65.00642448 25 67 C24.42121094 67.83402344 23.84242188 68.66804688 23.24609375 69.52734375 C21.57543083 71.79093506 19.94836476 73.97005346 18 76 C17.34 76 16.68 76 16 76 C16 76.66 16 77.32 16 78 C14.48329636 78.79955001 12.96138002 79.58921388 11.4375 80.375 C10.59058594 80.81585938 9.74367188 81.25671875 8.87109375 81.7109375 C-2.30630472 86.7293613 -15.32778103 86.17072162 -27 83 C-27.85207031 82.79375 -28.70414063 82.5875 -29.58203125 82.375 C-35.3207798 80.86072752 -39.50121644 78.91198571 -44 75 C-44 74.01 -44 73.02 -44 72 C-44.763125 71.731875 -45.52625 71.46375 -46.3125 71.1875 C-48.99609663 70.00172475 -50.26110895 69.3185214 -52 67 C-53.1875 63.8125 -53.1875 63.8125 -54 61 C-53.01 61.66 -52.02 62.32 -51 63 C-51 63.66 -51 64.32 -51 65 C-50.175 65.268125 -49.35 65.53625 -48.5 65.8125 C-45 67 -45 67 -41.5625 68.625 C-33.13131636 71.82527587 -22.41188642 70.9059244 -14 68 C-11.98529902 67.02995879 -9.98077953 66.03755118 -8 65 C-7.34 65 -6.68 65 -6 65 C-5.7525 64.401875 -5.505 63.80375 -5.25 63.1875 C-4 61 -4 61 -2.0625 59.6640625 C1.86880781 56.49221188 2.88416583 51.77968142 4 47 C4.64571199 39.76330101 4.64267338 32.81531556 2 26 C1.649375 24.865625 1.29875 23.73125 0.9375 22.5625 C-1.2761855 17.54782468 -5.75797445 14.28131163 -10 11 C-10.82113281 10.26652344 -11.64226562 9.53304687 -12.48828125 8.77734375 C-17.84770771 6.06484204 -22.96493021 6.5765668 -28.875 6.75 C-30.0403125 6.76804687 -31.205625 6.78609375 -32.40625 6.8046875 C-35.27168249 6.8516618 -38.13541168 6.91733707 -41 7 C-41.33 7.99 -41.66 8.98 -42 10 C-42.99 10.33 -43.98 10.66 -45 11 C-47.31575456 13.19996683 -49.51154344 15.47536148 -51.6875 17.8125 C-53 19 -53 19 -55 19 C-52.38077453 11.67132973 -46.92849612 4.99241778 -41 0 C-38.1875 -0.8125 -38.1875 -0.8125 -36 -1 C-36 -1.66 -36 -2.32 -36 -3 C-23.37430023 -6.42391858 -11.82848895 -5.91424447 0 0 Z " fill="#9940D4" transform="translate(173,108)"/>
<path d="M0 0 C0.6875 1.625 0.6875 1.625 1 4 C-0.4375 7.25 -0.4375 7.25 -2 10 C-2.66 10 -3.32 10 -4 10 C-4.2475 10.94875 -4.495 11.8975 -4.75 12.875 C-5.63247717 15.99518715 -6.75939964 18.94246852 -8 21.9375 C-9.76918068 26.24822756 -10.98990508 30.45457287 -12 35 C-12.66 35 -13.32 35 -14 35 C-15.96072489 57.1428066 -15.96072489 57.1428066 -13 79 C-12.61551252 80.87307752 -12.24045712 82.74811665 -11.875 84.625 C-11.70742188 85.46289062 -11.53984375 86.30078125 -11.3671875 87.1640625 C-11.24601562 87.76992187 -11.12484375 88.37578125 -11 89 C-10.34 89 -9.68 89 -9 89 C-8.62488281 89.71285156 -8.24976563 90.42570312 -7.86328125 91.16015625 C-5.47894726 95.62252439 -3.13739755 99.98842652 -0.125 104.0625 C2 107 2 107 2 109 C3.485 109.495 3.485 109.495 5 110 C6.01351664 111.65848177 7.01120795 113.32665961 8 115 C9.62449243 116.70779973 11.29220027 118.37550757 13 120 C13.99 121.051875 13.99 121.051875 15 122.125 C16.97089775 124.11794068 16.97089775 124.11794068 19.625 125.5 C22.26967133 127.17031873 22.64796644 128.29593288 24 131 C25.33180986 131.33936911 26.66540783 131.67174304 28 132 C29.921875 133.12109375 29.921875 133.12109375 31.75 134.4375 C32.36359375 134.86933594 32.9771875 135.30117187 33.609375 135.74609375 C34.29773438 136.36677734 34.29773438 136.36677734 35 137 C35 137.66 35 138.32 35 139 C31.54384273 137.78567447 29.51193075 136.61659454 27 134 C26.26523438 133.58105469 25.53046875 133.16210938 24.7734375 132.73046875 C21.55843169 130.72448625 18.87612567 128.33051323 16.125 125.75 C15.63386719 125.29753906 15.14273438 124.84507812 14.63671875 124.37890625 C13.07751848 122.93310236 11.53807073 121.46824392 10 120 C9.43297363 119.47301514 8.86594727 118.94603027 8.28173828 118.40307617 C3.65236602 113.97784681 0.11288754 109.16795264 -3.375 103.8125 C-3.90738281 103.01908203 -4.43976562 102.22566406 -4.98828125 101.40820312 C-9.20487129 95.01894265 -9.20487129 95.01894265 -10 91 C-10.66 91 -11.32 91 -12 91 C-19.40642419 68.7088204 -21.70998514 44.53828937 -11.41796875 22.6328125 C-10.95003906 21.76398438 -10.48210938 20.89515625 -10 20 C-9.29497819 18.33358482 -8.59004063 16.66713335 -7.88671875 15 C-5.59222385 9.82475158 -3.14157679 4.71236519 0 0 Z " fill="#C288DF" transform="translate(48,90)"/>
<path d="M0 0 C12.47254017 3.47873569 12.47254017 3.47873569 16 8 C17.74451044 13.92008059 15.68937256 19.1075295 13.5 24.625 C10.28156668 33.01493302 9.50304213 41.46477349 11.5234375 50.28515625 C14.21054462 56.12495836 20.8390783 59.57421577 26 63 C24.140625 63.58203125 24.140625 63.58203125 22 64 C19.75 62.6875 19.75 62.6875 18 61 C18 60.34 18 59.68 18 59 C17.360625 58.896875 16.72125 58.79375 16.0625 58.6875 C15.0415625 58.3471875 15.0415625 58.3471875 14 58 C13.505 56.515 13.505 56.515 13 55 C10.98491642 54.26676204 10.98491642 54.26676204 9 54 C8.91257199 49.79179855 8.85946359 45.58383224 8.8125 41.375 C8.78736328 40.18519531 8.76222656 38.99539062 8.73632812 37.76953125 C8.64623238 27.01810616 8.64623238 27.01810616 12 22 C14.24693772 16.83204324 13.93507579 13.42343957 13 8 C12.22914063 7.75765625 11.45828125 7.5153125 10.6640625 7.265625 C9.66117187 6.93046875 8.65828125 6.5953125 7.625 6.25 C6.62726563 5.92515625 5.62953125 5.6003125 4.6015625 5.265625 C1.70207827 3.8550651 1.04162718 2.98683456 0 0 Z " fill="#A969CE" transform="translate(261,41)"/>
<path d="M0 0 C1.29780396 0.00628418 1.29780396 0.00628418 2.62182617 0.01269531 C15.9360861 0.23981453 28.76228806 2.73799654 41.48828125 6.54296875 C44.6810673 7.3109527 47.41802984 7.4559412 50.6875 7.3125 C50.3575 8.3025 50.0275 9.2925 49.6875 10.3125 C44.1767522 10.58131697 39.72413376 9.40457379 34.55859375 7.546875 C29.84677883 5.87520501 25.52860068 4.89332227 20.53515625 4.5234375 C18.6875 4.3125 18.6875 4.3125 16.6875 3.3125 C14.93308737 3.21593351 13.17503577 3.18174513 11.41796875 3.1796875 C10.36416016 3.17839844 9.31035156 3.17710938 8.22460938 3.17578125 C7.11923828 3.17964844 6.01386719 3.18351562 4.875 3.1875 C3.78123047 3.18363281 2.68746094 3.17976563 1.56054688 3.17578125 C0.50287109 3.17707031 -0.55480469 3.17835937 -1.64453125 3.1796875 C-3.09436401 3.18137939 -3.09436401 3.18137939 -4.57348633 3.18310547 C-7.25477275 3.30977289 -9.69395363 3.74558388 -12.3125 4.3125 C-13.91553627 4.37621368 -15.52087672 4.39894214 -17.125 4.375 C-17.91519531 4.36597656 -18.70539063 4.35695313 -19.51953125 4.34765625 C-20.11121094 4.33605469 -20.70289062 4.32445312 -21.3125 4.3125 C-14.69206213 0.45057791 -7.46950888 -0.05033462 0 0 Z " fill="#BF81DE" transform="translate(126.3125,37.6875)"/>
<path d="M0 0 C-1.06313774 3.30753965 -2.55282011 4.47555698 -5.5 6.0625 C-6.1084375 6.36285156 -6.716875 6.66320313 -7.34375 6.97265625 C-9.33047815 8.04647811 -9.33047815 8.04647811 -11 11 C-11.825 11.144375 -12.65 11.28875 -13.5 11.4375 C-14.325 11.623125 -15.15 11.80875 -16 12 C-16.70505036 13.3134406 -17.36618436 14.65074096 -18 16 C-18.96031572 17.26041438 -19.96152737 18.49066029 -21 19.6875 C-21.515625 20.28949219 -22.03125 20.89148438 -22.5625 21.51171875 C-24 23 -24 23 -26 24 C-26.7115625 25.2375 -26.7115625 25.2375 -27.4375 26.5 C-29 29 -29 29 -32 30 C-32.72045764 31.9812585 -33.38001259 33.98504093 -34 36 C-34.9563874 37.69207001 -35.94410931 39.36816893 -37 41 C-37.99 40.67 -38.98 40.34 -40 40 C-32.16997986 26.49045822 -21.9955588 14.46155728 -9.375 5.25 C-8.694375 4.74339844 -8.01375 4.23679687 -7.3125 3.71484375 C-6.66023438 3.23660156 -6.00796875 2.75835937 -5.3359375 2.265625 C-4.44720947 1.61255371 -4.44720947 1.61255371 -3.54052734 0.94628906 C-2 0 -2 0 0 0 Z " fill="#C18DE0" transform="translate(89,48)"/>
<path d="M0 0 C0.70125 0.144375 1.4025 0.28875 2.125 0.4375 C5.07556141 1.01478375 8.03270151 1.51695141 11 2 C11 2.66 11 3.32 11 4 C11.680625 4.103125 12.36125 4.20625 13.0625 4.3125 C16.59122311 5.13837137 19.67371048 6.56625452 23 8 C25.31982601 8.74162079 27.64472724 9.37513172 30 10 C30 10.66 30 11.32 30 12 C30.99 12 31.98 12 33 12 C33 12.66 33 13.32 33 14 C33.763125 14.144375 34.52625 14.28875 35.3125 14.4375 C38 15 38 15 41 16 C41 16.99 41 17.98 41 19 C36.75165855 17.68503717 32.97050713 15.98525356 29 14 C27.845 13.5875 26.69 13.175 25.5 12.75 C20.27582328 10.85761999 15.39973977 8.25003525 10.46484375 5.71875 C7.01634234 4.00810669 3.55037633 2.48346934 0 1 C0 0.67 0 0.34 0 0 Z " fill="#C188E3" transform="translate(140,261)"/>
<path d="M0 0 C0.66 0.33 1.32 0.66 2 1 C-2.83864389 9.56630007 -7.77087577 18.0771577 -12.75 26.5625 C-13.30453857 27.51398926 -13.85907715 28.46547852 -14.43041992 29.44580078 C-17.04056799 33.87922854 -19.60709627 38.10474887 -23 42 C-22.42484053 38.33578183 -21.43457535 35.63169385 -19.5625 32.4375 C-17.95004657 29.66022947 -16.4076474 26.88731397 -15 24 C-14.34 24 -13.68 24 -13 24 C-12.896875 23.46375 -12.79375 22.9275 -12.6875 22.375 C-11.81907303 19.37497956 -10.44379704 16.7620465 -9 14 C-8.34 14 -7.68 14 -7 14 C-6.87625 13.236875 -6.7525 12.47375 -6.625 11.6875 C-6 9 -6 9 -4 6 C-3.34 6 -2.68 6 -2 6 C-1.34 4.02 -0.68 2.04 0 0 Z " fill="#C080E1" transform="translate(253,239)"/>
<path d="M0 0 C6.75 0.75 6.75 0.75 9 3 C10.6635479 3.67441131 12.33066942 4.3400321 14 5 C14.845625 5.515625 15.69125 6.03125 16.5625 6.5625 C18.85430084 8.07680164 18.85430084 8.07680164 21.125 8.5 C23 9 23 9 24.32421875 10.39453125 C26.30327343 12.29054867 28.16824732 13.12868366 30.6875 14.1875 C31.49574219 14.53167969 32.30398437 14.87585938 33.13671875 15.23046875 C33.75160156 15.48441406 34.36648437 15.73835937 35 16 C35 16.99 35 17.98 35 19 C30.91193667 17.76407388 27.62896755 16.21961435 24 14 C22.09287501 12.94418307 20.17972082 11.8992075 18.26171875 10.86328125 C17.19501953 10.28642578 16.12832031 9.70957031 15.02929688 9.11523438 C13.92650391 8.52033203 12.82371094 7.92542969 11.6875 7.3125 C10.56537109 6.70599609 9.44324219 6.09949219 8.28710938 5.47460938 C5.52528935 3.98205132 2.76290343 2.49055131 0 1 C0 0.67 0 0.34 0 0 Z " fill="#C58CE2" transform="translate(100,240)"/>
<path d="M0 0 C6.5881559 3.37973955 12.2714062 7.3281371 18 12 C18.98226563 12.7734375 19.96453125 13.546875 20.9765625 14.34375 C21.97429687 15.1378125 22.97203125 15.931875 24 16.75 C24.928125 17.48734375 25.85625 18.2246875 26.8125 18.984375 C29 21 29 21 30 24 C28.68 24 27.36 24 26 24 C21 18.77272727 21 18.77272727 21 16 C20.195625 15.731875 19.39125 15.46375 18.5625 15.1875 C17.716875 14.795625 16.87125 14.40375 16 14 C15.67 13.01 15.34 12.02 15 11 C14.01 11 13.02 11 12 11 C12 10.34 12 9.68 12 9 C9.69 8.34 7.38 7.68 5 7 C5 6.01 5 5.02 5 4 C2.525 3.01 2.525 3.01 0 2 C0 1.34 0 0.68 0 0 Z " fill="#9959C2" transform="translate(290,107)"/>
<path d="M0 0 C-3 2 -3 2 -6 2 C-6 2.99 -6 3.98 -6 5 C-6.66 5 -7.32 5 -8 5 C-8 5.66 -8 6.32 -8 7 C-11.3 6.67 -14.6 6.34 -18 6 C-17 3 -17 3 -15.21484375 2.05078125 C-9.92037753 0.3343934 -5.56359492 -0.30346881 0 0 Z " fill="#A058CD" transform="translate(194,42)"/>
<path d="M0 0 C12.56394738 3.50423022 12.56394738 3.50423022 16 8 C17.52064499 14.4377671 15.60616799 20.13612203 13 26 C12.10376305 23.08722991 11.9156123 22.23206618 13 19.25 C14.29527629 15.04035205 13.74345105 12.31201607 13 8 C12.22914063 7.75765625 11.45828125 7.5153125 10.6640625 7.265625 C9.66117187 6.93046875 8.65828125 6.5953125 7.625 6.25 C6.62726563 5.92515625 5.62953125 5.6003125 4.6015625 5.265625 C1.70207827 3.8550651 1.04162718 2.98683456 0 0 Z " fill="#9B55C7" transform="translate(261,41)"/>
<path d="M0 0 C0.66 0 1.32 0 2 0 C0.10054187 4.83498433 -3.45786408 6.99581847 -7.6875 9.75 C-12.69262286 11.63872561 -18.31063639 12.18970153 -23.3046875 9.98046875 C-23.86414063 9.65691406 -24.42359375 9.33335937 -25 9 C-24.05898437 8.96261719 -23.11796875 8.92523438 -22.1484375 8.88671875 C-20.90320313 8.82097656 -19.65796875 8.75523437 -18.375 8.6875 C-16.53035156 8.60048828 -16.53035156 8.60048828 -14.6484375 8.51171875 C-10.83357917 7.97665832 -8.32968404 6.88536694 -5 5 C-4.236875 4.67 -3.47375 4.34 -2.6875 4 C-0.64996902 3.04145794 -0.64996902 3.04145794 0 0 Z " fill="#C18BDD" transform="translate(228,281)"/>
<path d="M0 0 C4.39683488 1.19913678 7.09840934 2.4288115 10 6 C10 6.66 10 7.32 10 8 C10.58265625 8.11472656 11.1653125 8.22945312 11.765625 8.34765625 C14.16523135 9.04824062 15.72860933 9.98192595 17.75 11.4375 C18.36359375 11.86933594 18.9771875 12.30117187 19.609375 12.74609375 C20.06828125 13.15988281 20.5271875 13.57367188 21 14 C21 14.66 21 15.32 21 16 C17.54384273 14.78567447 15.51193075 13.61659454 13 11 C12.278125 10.5875 11.55625 10.175 10.8125 9.75 C6.84006866 7.27826494 3.36044451 4.25204308 0 1 C0 0.67 0 0.34 0 0 Z " fill="#C892E2" transform="translate(62,213)"/>
<path d="M0 0 C0.66 0.33 1.32 0.66 2 1 C-6.2095968 10.5344885 -6.2095968 10.5344885 -10 14 C-10.66 14 -11.32 14 -12 14 C-10.41332422 10.09714233 -7.86649519 7.66479018 -4.875 4.75 C-3.96492188 3.85796875 -3.05484375 2.9659375 -2.1171875 2.046875 C-1.41851562 1.37140625 -0.71984375 0.6959375 0 0 Z " fill="#8839C3" transform="translate(111,71)"/>
<path d="M0 0 C1.98 0 3.96 0 6 0 C-0.57207681 5.44543508 -5.63660343 7.61963358 -14 9 C-11.87838666 6.87838666 -10.2266841 6.07013751 -7.5 4.875 C-6.7059375 4.52179688 -5.911875 4.16859375 -5.09375 3.8046875 C-3 3 -3 3 -1 3 C-0.67 2.01 -0.34 1.02 0 0 Z " fill="#9855C6" transform="translate(285,223)"/>
<path d="M0 0 C2.73710491 0.43217446 5.46103485 0.88152478 8.16796875 1.4765625 C15.08163719 2.98787012 21.94186284 3.57960939 29 4 C29 4.33 29 4.66 29 5 C6.03905722 5.61138605 6.03905722 5.61138605 1.16796875 1.42578125 C0.78253906 0.95527344 0.39710938 0.48476562 0 0 Z " fill="#AE55E4" transform="translate(140,189)"/>
<path d="M0 0 C3.79303725 1.00193437 6.71536341 1.81024227 10 4 C10 4.66 10 5.32 10 6 C11.423125 6.1546875 11.423125 6.1546875 12.875 6.3125 C16 7 16 7 18 10 C13.40297887 9.44593342 10.01892099 7.44322498 6.1875 5 C5.59001953 4.63132813 4.99253906 4.26265625 4.37695312 3.8828125 C2.89634966 2.9555317 1.4450798 1.98172332 0 1 C0 0.67 0 0.34 0 0 Z " fill="#7B2EB6" transform="translate(129,226)"/>
<path d="M0 0 C1.01900391 -0.01611328 2.03800781 -0.03222656 3.08789062 -0.04882812 C4.54678711 -0.04979492 4.54678711 -0.04979492 6.03515625 -0.05078125 C6.92726807 -0.05376221 7.81937988 -0.05674316 8.73852539 -0.05981445 C9.82701782 0.1244812 9.82701782 0.1244812 10.9375 0.3125 C11.5975 1.3025 12.2575 2.2925 12.9375 3.3125 C12.17179687 3.14878906 11.40609375 2.98507813 10.6171875 2.81640625 C5.74734281 2.14951669 0.97059368 2.20677153 -3.9375 2.25 C-5.39929688 2.25676758 -5.39929688 2.25676758 -6.890625 2.26367188 C-9.28131434 2.27539094 -11.6718744 2.29179781 -14.0625 2.3125 C-9.57782824 -0.67728117 -5.27441926 -0.01674419 0 0 Z " fill="#7629B1" transform="translate(146.0625,113.6875)"/>
<path d="M0 0 C-0.556875 0.226875 -1.11375 0.45375 -1.6875 0.6875 C-5.30573223 2.74109126 -7.87292777 5.78944094 -10.6875 8.8125 C-12 10 -12 10 -14 10 C-12.512 5.288 -12.512 5.288 -10 3.875 C-9.34 3.58625 -8.68 3.2975 -8 3 C-7.34 2.01 -6.68 1.02 -6 0 C-3.39677846 -0.97620808 -2.52782417 -1.26391209 0 0 Z " fill="#7E30B4" transform="translate(132,117)"/>
<path d="M0 0 C0.625 1.8125 0.625 1.8125 1 4 C0.01 5.485 0.01 5.485 -1 7 C-1.66 7 -2.32 7 -3 7 C-3.12375 7.5775 -3.2475 8.155 -3.375 8.75 C-4.00648824 11.02335767 -4.88858191 12.9253529 -6 15 C-6.66 15 -7.32 15 -8 15 C-7.34 12.69 -6.68 10.38 -6 8 C-5.34 8 -4.68 8 -4 8 C-3.566875 6.8553125 -3.566875 6.8553125 -3.125 5.6875 C-2 3 -2 3 0 0 Z " fill="#7E33B8" transform="translate(94,90)"/>
<path d="M0 0 C2 3 2 3 1.6875 6.5625 C1 10 1 10 0 12 C-0.66 12 -1.32 12 -2 12 C-1.85962479 10.18706911 -1.71255111 8.3746557 -1.5625 6.5625 C-1.48128906 5.55316406 -1.40007812 4.54382812 -1.31640625 3.50390625 C-1 1 -1 1 0 0 Z " fill="#EAD1F3" transform="translate(278,49)"/>
<path d="M0 0 C0.33 0.66 0.66 1.32 1 2 C-4.58924205 7.8997555 -4.58924205 7.8997555 -8 9 C-9.34302277 8.70814606 -10.6789271 8.37901884 -12 8 C-11.38511719 7.67386719 -10.77023438 7.34773438 -10.13671875 7.01171875 C-8.92435547 6.35623047 -8.92435547 6.35623047 -7.6875 5.6875 C-6.88699219 5.25824219 -6.08648437 4.82898438 -5.26171875 4.38671875 C-3.16212728 3.09940446 -1.64552279 1.81593292 0 0 Z " fill="#EED2F7" transform="translate(229,283)"/>
<path d="M0 0 C0.66 0.33 1.32 0.66 2 1 C-0.99481865 5.22797927 -0.99481865 5.22797927 -3 7 C-6.3125 7.375 -6.3125 7.375 -9 7 C-6.3765992 4.08511023 -3.28183606 2.11496102 0 0 Z " fill="#E9CEF1" transform="translate(295,220)"/>
<path d="M0 0 C-0.886875 0.433125 -1.77375 0.86625 -2.6875 1.3125 C-5.96134407 2.91395764 -5.96134407 2.91395764 -8.75 4.75 C-9.86375 5.36875 -9.86375 5.36875 -11 6 C-11.66 5.67 -12.32 5.34 -13 5 C-12.67 4.34 -12.34 3.68 -12 3 C-9.4375 2.375 -9.4375 2.375 -7 2 C-7 1.34 -7 0.68 -7 0 C-3.86650268 -1.04449911 -3.01031744 -0.93423645 0 0 Z " fill="#A54BD7" transform="translate(144,105)"/>
<path d="M0 0 C2.0625 0.4375 2.0625 0.4375 4 1 C3.75 2.875 3.75 2.875 3 5 C0.9375 6.25 0.9375 6.25 -1 7 C-1.04254356 5.00045254 -1.04080783 2.99958364 -1 1 C-0.67 0.67 -0.34 0.34 0 0 Z " fill="#F9F0F8" transform="translate(80,47)"/>
<path d="M0 0 C0.99 0 1.98 0 3 0 C1.92289822 4.30840713 0.96052484 7.63576723 -2 11 C-1.85892253 9.54119891 -1.71197585 8.08296449 -1.5625 6.625 C-1.48128906 5.81289062 -1.40007813 5.00078125 -1.31640625 4.1640625 C-1 2 -1 2 0 0 Z " fill="#F3E1F9" transform="translate(36,108)"/>
<path d="M0 0 C3.63 0 7.26 0 11 0 C7.96474514 2.02350324 6.80573798 2.32124018 3.3125 2.625 C2.50425781 2.69976562 1.69601562 2.77453125 0.86328125 2.8515625 C0.24839844 2.90054688 -0.36648438 2.94953125 -1 3 C-0.67 2.01 -0.34 1.02 0 0 Z " fill="#F0D7F9" transform="translate(258,234)"/>
<path d="M0 0 C3.58273331 1.65356922 6.80973467 3.67980703 10 6 C10 6.66 10 7.32 10 8 C4.98886765 6.5682479 3.05530451 4.01554307 0 0 Z " fill="#C187DC" transform="translate(73,221)"/>
<path d="M0 0 C3.25 -0.3125 3.25 -0.3125 7 0 C9.4375 2.5 9.4375 2.5 11 5 C9.35 4.67 7.7 4.34 6 4 C6 3.34 6 2.68 6 2 C3.03 1.505 3.03 1.505 0 1 C0 0.67 0 0.34 0 0 Z " fill="#C393E0" transform="translate(181,280)"/>
<path d="M0 0 C0.625 1.8125 0.625 1.8125 1 4 C0.01 5.485 0.01 5.485 -1 7 C-1.66 7 -2.32 7 -3 7 C-3 7.99 -3 8.98 -3 10 C-3.66 10 -4.32 10 -5 10 C-3.66511872 6.40608886 -2.03977277 3.24509304 0 0 Z " fill="#F4D7FC" transform="translate(252,244)"/>
<path d="M0 0 C0 3 0 3 -2.5 5.6875 C-3.325 6.450625 -4.15 7.21375 -5 8 C-5.99 7.67 -6.98 7.34 -8 7 C-6.625 5.5 -6.625 5.5 -5 4 C-4.34 4 -3.68 4 -3 4 C-3 3.34 -3 2.68 -3 2 C-2.01 1.34 -1.02 0.68 0 0 Z " fill="#EBD3F7" transform="translate(311,207)"/>
<path d="M0 0 C4.75286041 4.29290618 4.75286041 4.29290618 5 8 C4.34 8.66 3.68 9.32 3 10 C1.5783681 6.6828589 0.60990891 3.55780196 0 0 Z " fill="#A463CF" transform="translate(327,139)"/>
<path d="M0 0 C7.57142857 4.14285714 7.57142857 4.14285714 10 7 C6.62537285 6.45276317 4.91765 5.9451 2 4 C2 3.34 2 2.68 2 2 C1.34 2 0.68 2 0 2 C0 1.34 0 0.68 0 0 Z " fill="#9960C8" transform="translate(277,98)"/>
<path d="M0 0 C3.375 0.25 3.375 0.25 7 1 C8.4375 3.0625 8.4375 3.0625 9 5 C5.54074837 3.7508258 2.85306797 2.32472205 0 0 Z " fill="#C896E5" transform="translate(100,240)"/>
<path d="M0 0 C1.32 0.33 2.64 0.66 4 1 C1.03 3.475 1.03 3.475 -2 6 C-2.33 4.68 -2.66 3.36 -3 2 C-2.34 2 -1.68 2 -1 2 C-0.67 1.34 -0.34 0.68 0 0 Z " fill="#9A54C8" transform="translate(301,212)"/>
<path d="M0 0 C4.875 4.625 4.875 4.625 6 8 C4.68 8 3.36 8 2 8 C1.34 5.36 0.68 2.72 0 0 Z " fill="#A169C7" transform="translate(321,131)"/>
<path d="M0 0 C0.33 0.99 0.66 1.98 1 3 C-0.32 4.32 -1.64 5.64 -3 7 C-3.99 6.67 -4.98 6.34 -6 6 C-4 4 -2 2 0 0 Z " fill="#CB9AE4" transform="translate(72,59)"/>
<path d="M0 0 C2.64 0 5.28 0 8 0 C8 0.99 8 1.98 8 3 C3.44615385 3.36923077 3.44615385 3.36923077 1.1875 1.5 C0.5996875 0.7575 0.5996875 0.7575 0 0 Z " fill="#AD5EDD" transform="translate(201,275)"/>
<path d="M0 0 C0.33 0.99 0.66 1.98 1 3 C-1.31 4.98 -3.62 6.96 -6 9 C-6.33 8.34 -6.66 7.68 -7 7 C-4.66666667 4.66666667 -2.33333333 2.33333333 0 0 Z " fill="#B75FE9" transform="translate(196,177)"/>
<path d="M0 0 C0 3.57575896 -1.08840607 5.05295935 -3 8 C-3.99 7.67 -4.98 7.34 -6 7 C-4.19587357 3.73539027 -3.16605307 2.11070205 0 0 Z " fill="#C084E0" transform="translate(55,81)"/>
<path d="M0 0 C0.33 0.66 0.66 1.32 1 2 C0.06421005 4.35981813 -0.93347808 6.69631264 -2 9 C-2.66 9 -3.32 9 -4 9 C-2.94124926 5.59687262 -1.99097846 2.98646769 0 0 Z " fill="#F2D9FB" transform="translate(246,254)"/>
</svg>
